<mxfile host="app.diagrams.net" modified="2021-08-08T22:13:49.836Z" agent="5.0 (Macintosh; Intel Mac OS X 10_15_6) AppleWebKit/605.1.15 (KHTML, like Gecko) Version/14.0.3 Safari/605.1.15" etag="MVWUVZWtHKQA7ONW-QS_" version="14.9.5" type="github">
  <diagram id="CF18A-GT9-lSxNKLadu5" name="Page-1">
    <mxGraphModel dx="1217" dy="705" grid="1" gridSize="10" guides="1" tooltips="1" connect="1" arrows="1" fold="1" page="1" pageScale="1" pageWidth="1100" pageHeight="850" math="0" shadow="0">
      <root>
        <mxCell id="0" />
        <mxCell id="1" parent="0" />
        <mxCell id="fSHSB3awpvknk3hf8yVV-2" value="&lt;p style=&quot;margin: 0px ; margin-top: 6px ; text-align: center&quot;&gt;&lt;b&gt;&amp;lt;Component&amp;gt;&lt;/b&gt;&lt;/p&gt;&lt;p style=&quot;margin: 0px ; margin-top: 6px ; text-align: center&quot;&gt;&lt;b&gt;Server&lt;/b&gt;&lt;/p&gt;" style="align=left;overflow=fill;html=1;dropTarget=0;" parent="1" vertex="1">
          <mxGeometry x="270" y="200" width="230" height="60" as="geometry" />
        </mxCell>
        <mxCell id="fSHSB3awpvknk3hf8yVV-3" value="Port 9000" style="shape=component;jettyWidth=8;jettyHeight=4;" parent="fSHSB3awpvknk3hf8yVV-2" vertex="1">
          <mxGeometry x="1" width="59" height="20" relative="1" as="geometry">
            <mxPoint x="-100" y="50" as="offset" />
          </mxGeometry>
        </mxCell>
        <mxCell id="fSHSB3awpvknk3hf8yVV-8" value="&lt;p style=&quot;margin: 0px ; margin-top: 6px ; text-align: center&quot;&gt;&lt;b&gt;&amp;lt;Component&amp;gt;&lt;/b&gt;&lt;/p&gt;&lt;p style=&quot;margin: 0px ; margin-top: 6px ; text-align: center&quot;&gt;&lt;b&gt;Client&lt;/b&gt;&lt;/p&gt;" style="align=left;overflow=fill;html=1;dropTarget=0;" parent="1" vertex="1">
          <mxGeometry x="240" y="418" width="290" height="60" as="geometry" />
        </mxCell>
        <mxCell id="fSHSB3awpvknk3hf8yVV-9" value="" style="shape=component;jettyWidth=8;jettyHeight=4;" parent="fSHSB3awpvknk3hf8yVV-8" vertex="1">
          <mxGeometry x="1" width="20" height="20" relative="1" as="geometry">
            <mxPoint x="-115" y="-13" as="offset" />
          </mxGeometry>
        </mxCell>
        <mxCell id="fSHSB3awpvknk3hf8yVV-49" value="" style="rounded=0;orthogonalLoop=1;jettySize=auto;html=1;endArrow=none;endFill=0;dashed=1;exitX=0.597;exitY=1.05;exitDx=0;exitDy=0;exitPerimeter=0;" parent="1" edge="1">
          <mxGeometry relative="1" as="geometry">
            <mxPoint x="424.0999999999999" y="260" as="sourcePoint" />
            <mxPoint x="425" y="342" as="targetPoint" />
          </mxGeometry>
        </mxCell>
        <mxCell id="fSHSB3awpvknk3hf8yVV-51" value="" style="rounded=0;orthogonalLoop=1;jettySize=auto;html=1;endArrow=halfCircle;endFill=0;endSize=6;strokeWidth=1;dashed=1;" parent="1" edge="1">
          <mxGeometry relative="1" as="geometry">
            <mxPoint x="425" y="417" as="sourcePoint" />
            <mxPoint x="425" y="342" as="targetPoint" />
          </mxGeometry>
        </mxCell>
        <mxCell id="fSHSB3awpvknk3hf8yVV-52" value="" style="ellipse;whiteSpace=wrap;html=1;fontFamily=Helvetica;fontSize=12;fontColor=#000000;align=center;strokeColor=#000000;fillColor=#ffffff;points=[];aspect=fixed;resizable=0;" parent="1" vertex="1">
          <mxGeometry x="420" y="337" width="10" height="10" as="geometry" />
        </mxCell>
        <mxCell id="IRfZfiSno3Zfo2Mrzo2M-1" value="Socket&amp;nbsp;" style="rounded=0;whiteSpace=wrap;html=1;" vertex="1" parent="1">
          <mxGeometry x="450" y="332" width="60" height="20" as="geometry" />
        </mxCell>
      </root>
    </mxGraphModel>
  </diagram>
</mxfile>
